<svg xmlns="http://www.w3.org/2000/svg" enable-background="new 0 0 64 64" viewBox="0 0 64 64" id="ai-assisted-education">
  <g>
    <g>
      <g>
        <g>
          <path d="M47.5,64H6.48c-0.27,0-0.49-0.22-0.49-0.49c0-0.27,0.22-0.49,0.49-0.49H47.5c1.6,0,2.9-1.3,2.9-2.9V3.89
					c0-1.6-1.3-2.91-2.9-2.91H4.17c-1.6,0-2.91,1.31-2.91,2.91v53.9c0,0.27-0.22,0.5-0.49,0.5c-0.27,0-0.49-0.21-0.49-0.49V3.89
					C0.28,1.75,2.03,0,4.17,0H47.5c2.14,0,3.88,1.75,3.88,3.89v56.22C51.38,62.25,49.64,64,47.5,64z"></path>
        </g>
        <g>
          <path d="M40.85,64H6.48c-3.42,0-6.2-2.78-6.2-6.2c0-3.42,2.78-6.2,6.2-6.2h44.4c0.27,0,0.49,0.22,0.49,0.49
					c0,0.27-0.22,0.49-0.49,0.49H6.48c-2.88,0-5.22,2.34-5.22,5.22c0,2.88,2.34,5.22,5.22,5.22h34.36c0.27,0,0.49,0.22,0.49,0.49
					C41.34,63.78,41.12,64,40.85,64z"></path>
        </g>
        <g>
          <path d="M11.8,52.58c-0.27,0-0.49-0.22-0.49-0.49V0.49C11.31,0.22,11.53,0,11.8,0c0.27,0,0.49,0.22,0.49,0.49v51.59
					C12.29,52.36,12.07,52.58,11.8,52.58z"></path>
        </g>
      </g>
      <g>
        <path d="M50.89,56.76H14.85c-0.27,0-0.49-0.22-0.49-0.49c0-0.27,0.22-0.49,0.49-0.49h36.04c0.27,0,0.49,0.22,0.49,0.49
				C51.38,56.54,51.16,56.76,50.89,56.76z"></path>
      </g>
      <g>
        <path d="M39.81,60.21H6.98c-0.27,0-0.49-0.22-0.49-0.49c0-0.27,0.22-0.49,0.49-0.49h32.84c0.27,0,0.49,0.22,0.49,0.49
				C40.3,59.99,40.08,60.21,39.81,60.21z"></path>
      </g>
    </g>
    <g>
      <g>
        <path d="M62.31,25.47h-6.29c-0.78,0-1.42-0.64-1.42-1.42V8.05c0-0.78,0.64-1.42,1.42-1.42h6.29c0.78,0,1.42,0.64,1.42,1.42v16.01
				C63.72,24.84,63.09,25.47,62.31,25.47z M56.01,7.62c-0.24,0-0.43,0.19-0.43,0.43v16.01c0,0.24,0.19,0.43,0.43,0.43h6.29
				c0.24,0,0.43-0.19,0.43-0.43V8.05c0-0.24-0.19-0.43-0.43-0.43H56.01z"></path>
      </g>
      <g>
        <path d="M62.14,49.26h-5.96c-0.27,0-0.49-0.22-0.49-0.49V24.98c0-0.27,0.22-0.49,0.49-0.49c0.27,0,0.49,0.22,0.49,0.49v23.3h4.98
				v-23.3c0-0.27,0.22-0.49,0.49-0.49s0.49,0.22,0.49,0.49v23.79C62.63,49.04,62.41,49.26,62.14,49.26z"></path>
      </g>
      <g>
        <path d="M59.11,58.12c-0.69,0-1.25-0.56-1.25-1.25v-3.23c0-0.45-0.11-0.9-0.32-1.29L55.74,49c-0.13-0.24-0.04-0.54,0.2-0.67
				c0.24-0.13,0.54-0.04,0.67,0.2l1.8,3.35c0.29,0.54,0.44,1.15,0.44,1.76v3.23c0,0.29,0.52,0.29,0.52,0v-3.17
				c0-0.63,0.16-1.26,0.47-1.81l1.87-3.37c0.13-0.24,0.43-0.33,0.67-0.19c0.24,0.13,0.32,0.43,0.19,0.67l-1.87,3.37
				c-0.22,0.41-0.34,0.87-0.34,1.33v3.17C60.36,57.57,59.8,58.12,59.11,58.12z"></path>
      </g>
      <g>
        <path d="M63.23,11.62h-8.14c-0.27,0-0.49-0.22-0.49-0.49c0-0.27,0.22-0.49,0.49-0.49h8.14c0.27,0,0.49,0.22,0.49,0.49
				C63.72,11.4,63.5,11.62,63.23,11.62z"></path>
      </g>
    </g>
    <g>
      <g>
        <g>
          <path d="M38.7,36.5H23.2c-0.75,0-1.35-0.61-1.35-1.35V19.36c0-0.75,0.61-1.35,1.35-1.35h15.5c0.75,0,1.35,0.61,1.35,1.35v15.78
					C40.05,35.89,39.45,36.5,38.7,36.5z M23.2,19c-0.2,0-0.37,0.17-0.37,0.37v15.78c0,0.2,0.17,0.37,0.37,0.37h15.5
					c0.2,0,0.37-0.17,0.37-0.37V19.36c0-0.2-0.17-0.37-0.37-0.37H23.2z"></path>
        </g>
        <g>
          <g>
            <path d="M25.76,19c-0.27,0-0.49-0.22-0.49-0.49v-2.44c0-0.27,0.22-0.49,0.49-0.49c0.27,0,0.49,0.22,0.49,0.49v2.44
						C26.25,18.78,26.03,19,25.76,19z"></path>
          </g>
          <g>
            <path d="M30.95,19c-0.27,0-0.49-0.22-0.49-0.49v-2.44c0-0.27,0.22-0.49,0.49-0.49c0.27,0,0.49,0.22,0.49,0.49v2.44
						C31.44,18.78,31.22,19,30.95,19z"></path>
          </g>
          <g>
            <path d="M36.07,19c-0.27,0-0.49-0.22-0.49-0.49v-2.44c0-0.27,0.22-0.49,0.49-0.49c0.27,0,0.49,0.22,0.49,0.49v2.44
						C36.56,18.78,36.34,19,36.07,19z"></path>
          </g>
        </g>
        <g>
          <g>
            <path d="M22.34,32.94H19.9c-0.27,0-0.49-0.22-0.49-0.49c0-0.27,0.22-0.49,0.49-0.49h2.44c0.27,0,0.49,0.22,0.49,0.49
						C22.83,32.72,22.61,32.94,22.34,32.94z"></path>
          </g>
          <g>
            <path d="M22.34,27.75H19.9c-0.27,0-0.49-0.22-0.49-0.49c0-0.27,0.22-0.49,0.49-0.49h2.44c0.27,0,0.49,0.22,0.49,0.49
						C22.83,27.53,22.61,27.75,22.34,27.75z"></path>
          </g>
          <g>
            <path d="M22.34,22.63H19.9c-0.27,0-0.49-0.22-0.49-0.49c0-0.27,0.22-0.49,0.49-0.49h2.44c0.27,0,0.49,0.22,0.49,0.49
						C22.83,22.41,22.61,22.63,22.34,22.63z"></path>
          </g>
        </g>
        <g>
          <g>
            <path d="M36.14,38.93c-0.27,0-0.49-0.22-0.49-0.49v-2.44c0-0.27,0.22-0.49,0.49-0.49c0.27,0,0.49,0.22,0.49,0.49v2.44
						C36.64,38.71,36.42,38.93,36.14,38.93z"></path>
          </g>
          <g>
            <path d="M30.95,38.93c-0.27,0-0.49-0.22-0.49-0.49v-2.44c0-0.27,0.22-0.49,0.49-0.49c0.27,0,0.49,0.22,0.49,0.49v2.44
						C31.44,38.71,31.22,38.93,30.95,38.93z"></path>
          </g>
          <g>
            <path d="M25.83,38.93c-0.27,0-0.49-0.22-0.49-0.49v-2.44c0-0.27,0.22-0.49,0.49-0.49c0.27,0,0.49,0.22,0.49,0.49v2.44
						C26.32,38.71,26.1,38.93,25.83,38.93z"></path>
          </g>
        </g>
        <g>
          <g>
            <path d="M42,22.59h-2.44c-0.27,0-0.49-0.22-0.49-0.49c0-0.27,0.22-0.49,0.49-0.49H42c0.27,0,0.49,0.22,0.49,0.49
						C42.49,22.37,42.27,22.59,42,22.59z"></path>
          </g>
          <g>
            <path d="M42,27.78h-2.44c-0.27,0-0.49-0.22-0.49-0.49c0-0.27,0.22-0.49,0.49-0.49H42c0.27,0,0.49,0.22,0.49,0.49
						C42.49,27.56,42.27,27.78,42,27.78z"></path>
          </g>
          <g>
            <path d="M42,32.9h-2.44c-0.27,0-0.49-0.22-0.49-0.49c0-0.27,0.22-0.49,0.49-0.49H42c0.27,0,0.49,0.22,0.49,0.49
						C42.49,32.68,42.27,32.9,42,32.9z"></path>
          </g>
        </g>
      </g>
      <g>
        <g>
          <path d="M31.43,28.77h-4.06c-0.27,0-0.49-0.22-0.49-0.49c0-0.27,0.22-0.49,0.49-0.49h4.06c0.27,0,0.49,0.22,0.49,0.49
					C31.92,28.55,31.7,28.77,31.43,28.77z"></path>
        </g>
        <g>
          <g>
            <path d="M32.5,31.68c-0.2,0-0.39-0.12-0.46-0.32l-2.64-6.95l-2.69,6.96c-0.1,0.25-0.39,0.38-0.64,0.28
						c-0.25-0.1-0.38-0.38-0.28-0.64l3.01-7.78c0.1-0.25,0.33-0.41,0.6-0.41c0,0,0,0,0,0c0.27,0,0.51,0.17,0.6,0.42l2.95,7.77
						c0.1,0.25-0.03,0.54-0.29,0.63C32.62,31.67,32.56,31.68,32.5,31.68z"></path>
          </g>
          <g>
            <path d="M35.65,31.68c-0.27,0-0.49-0.22-0.49-0.49v-7.88c0-0.27,0.22-0.49,0.49-0.49c0.27,0,0.49,0.22,0.49,0.49v7.88
						C36.15,31.46,35.93,31.68,35.65,31.68z"></path>
          </g>
        </g>
      </g>
    </g>
  </g>
</svg>
